#!OML:ASF Y:\EmotionMaleHayes\Project 1\Capture day 1\Session 1\Male1.ASF
:FULLY-SPECIFIED
:DEGREES
95
root -27.1152 16.938 0.724183 46.3269 85.7442 39.4291
lowerback 8.22878 2.64217 -4.28984
upperback 0.121769 3.10518 -0.410876
thorax -4.69455 1.6336 1.59711
lowerneck -31.3181 1.92797 2.13371
upperneck 24.9074 2.82406 -3.22129
head 13.717 0.963225 -1.06525
rclavicle 3.77691e-014 -8.54774e-015
rhumerus -26.1398 26.8104 -97.4566
rradius 51.6195
rwrist -18.3802
rhand -18.1793 -31.8314
rfingers 7.12502
rthumb 8.09725 -61.6563
lclavicle 3.77691e-014 -8.54774e-015
lhumerus -62.7451 -32.7496 105.021
lradius 66.4518
lwrist 24.8273
lhand -22.2753 -18.59
lfingers 7.12502
lthumb 4.1429 11.3495
rfemur 6.57888 -5.59961 7.88571
rtibia 5.95583
rfoot -24.4582 -1.67085
rtoes -3.91367
lfemur 4.2313 -1.22443 -21.4509
ltibia 8.61534
lfoot -24.0678 7.55397
ltoes -10.6893
96
root -27.0458 16.9292 0.69438 50.1085 85.9805 42.8957
lowerback 8.30034 2.56652 -4.24727
upperback 0.0787788 3.00209 -0.444318
thorax -4.76919 1.58293 1.54762
lowerneck -31.3551 1.95935 2.2449
upperneck 24.8086 2.8784 -3.43173
head 13.6908 0.965604 -1.15642
rclavicle 9.69075e-015 -1.39149e-015
rhumerus -26.8747 26.9825 -97.5107
rradius 53.3373
rwrist -19.0965
rhand -18.3539 -31.6694
rfingers 7.12502
rthumb 7.92882 -61.5007
lclavicle 9.69075e-015 -1.39149e-015
lhumerus -64.2147 -32.8072 105.325
lradius 67.5945
lwrist 24.7248
lhand -22.3277 -18.7109
lfingers 7.12502
lthumb 4.0923 11.2295
rfemur 6.63421 -5.66917 7.79813
rtibia 5.90148
rfoot -24.7106 -1.84116
rtoes -3.87778
lfemur 4.09419 -1.56022 -21.6469
ltibia 8.69039
lfoot -24.2821 7.80013
ltoes -12.2242
97
root -26.976 16.919 0.676856 50.0557 85.7436 42.4973
lowerback 8.18693 2.6906 -4.6063
upperback 0.126984 3.13929 -0.488546
thorax -4.68088 1.65674 1.69045
lowerneck -31.42 1.8897 2.19185
upperneck 24.8093 2.84758 -3.56223
head 13.7045 0.926602 -1.20653
rclavicle 2.2413e-014 -5.1684e-015
rhumerus -27.6168 27.1965 -97.5639
rradius 55.0778
rwrist -19.9434
rhand -19.6785 -31.0685
rfingers 7.12502
rthumb 6.65019 -60.9441
lclavicle 2.2413e-014 -5.1684e-015
lhumerus -65.1677 -32.7445 105.175
lradius 68.5616
lwrist 25.6197
lhand -19.8099 -19.1555
lfingers 7.12502
lthumb 6.52335 10.724
rfemur 6.32654 -5.45673 7.60132
rtibia 6.16296
rfoot -24.9841 -1.94248
rtoes -4.01327
lfemur 3.96031 -1.16375 -21.8304
ltibia 8.76083
lfoot -24.3946 7.71661
ltoes -12.946
98
root -26.9065 16.9094 0.660375 50.3442 85.715 42.3788
lowerback 7.85923 2.78181 -4.79842
upperback 0.289243 3.26791 -0.484477
thorax -4.347 1.71709 1.80555
lowerneck -31.7668 1.817 2.06826
upperneck 24.918 2.81444 -3.59969
head 13.8141 0.889175 -1.20926
rclavicle 1.93815e-015 -5.1684e-015
rhumerus -28.1951 27.3269 -97.5051
rradius 56.79
rwrist -20.3743
rhand -21.2488 -30.4855
rfingers 7.12502
rthumb 5.13413 -60.4033
lclavicle 1.93815e-015 -5.1684e-015
lhumerus -65.9242 -32.8703 105.151
lradius 69.3489
lwrist 25.6366
lhand -19.0422 -19.2819
lfingers 7.12502
lthumb 7.26444 10.5734
rfemur 6.06084 -5.06812 7.68471
rtibia 6.22117
rfoot -25.1319 -2.67056
rtoes -5.37232
lfemur 3.67628 -0.448845 -21.6824
ltibia 8.94798
lfoot -24.3723 7.09626
ltoes -13.0786
99
root -26.8394 16.9075 0.630511 51.2287 85.8862 43.0498
lowerback 7.99292 2.80799 -4.76551
upperback 0.377785 3.30437 -0.402348
thorax -4.33502 1.73378 1.86425
lowerneck -31.897 1.71377 1.90465
upperneck 24.9164 2.78349 -3.71071
head 13.8374 0.841005 -1.23376
rclavicle -1.07344e-014 9.14409e-015
rhumerus -29.0921 27.5676 -97.4592
rradius 58.6819
rwrist -20.5704
rhand -22.3354 -31.099
rfingers 7.12502
rthumb 4.08488 -61.0396
lclavicle -1.07344e-014 9.14409e-015
lhumerus -66.805 -32.7949 105.321
lradius 70.0247
lwrist 25.2546
lhand -19.2328 -19.3556
lfingers 7.12502
lthumb 7.08042 10.5059
rfemur 5.95392 -5.00327 7.7675
rtibia 6.46657
rfoot -25.2749 -3.11205
rtoes -6.07787
lfemur 3.64295 -0.116402 -21.5966
ltibia 9.02772
lfoot -24.4059 6.84724
ltoes -13.2147
100
root -26.7653 16.8924 0.602579 55.1666 85.9986 46.493
lowerback 7.77694 2.74294 -4.86925
upperback 0.387498 3.22053 -0.426266
thorax -4.20227 1.69174 1.91812
lowerneck -31.8475 1.62637 1.8443
upperneck 24.7359 2.71489 -3.81464
head 13.7508 0.790946 -1.27821
rclavicle 1.41137e-014 -3.10104e-014
rhumerus -30.086 27.69 -97.4808
rradius 60.674
rwrist -20.6253
rhand -22.6907 -31.3159
rfingers 7.12502
rthumb 3.74178 -61.2628
lclavicle 1.41137e-014 -3.10104e-014
lhumerus -67.5586 -32.6609 105.37
lradius 70.4606
lwrist 24.8173
lhand -19.9432 -19.535
lfingers 7.12502
lthumb 6.39468 10.3485
rfemur 5.56076 -4.66222 7.77093
rtibia 6.79301
rfoot -25.6191 -3.81417
rtoes -5.94343
lfemur 3.40784 -0.353604 -21.8524
ltibia 8.93434
lfoot -24.5169 7.0803
ltoes -13.5465
101
root -26.6841 16.884 0.573613 60.8202 85.922 51.8084
lowerback 7.79949 2.68363 -5.16009
upperback 0.366333 3.1105 -0.539291
thorax -4.23853 1.64334 1.9747
lowerneck -31.6413 1.57852 1.87309
upperneck 24.517 2.65999 -3.9203
head 13.6205 0.757873 -1.3341
rclavicle 5.2181e-015 -1.27222e-014
rhumerus -31.2275 27.6296 -97.6139
rradius 62.341
rwrist -19.9741
rhand -22.9205 -30.4333
rfingers 7.12502
rthumb 3.51988 -60.384
lclavicle 5.2181e-015 -1.27222e-014
lhumerus -68.2738 -32.3462 105.28
lradius 70.7529
lwrist 24.4038
lhand -20.3714 -19.6193
lfingers 7.12502
lthumb 5.98122 10.2763
rfemur 5.34976 -4.04548 7.62494
rtibia 7.08662
rfoot -25.8965 -4.83438
rtoes -5.88332
lfemur 3.42666 -0.989721 -22.5007
ltibia 8.72735
lfoot -24.6945 7.60018
ltoes -15.1805
